#!OML:ASF C:\ViconDB\ViconDB\414\Spring2016\041811\Spring2016.ASF
:FULLY-SPECIFIED
:DEGREES
384
root 5.12554 19.7953 -53.9774 -176.651 -5.19923 178.229
lowerback 17.2674 0.461108 -4.39447
upperback 1.78572 -0.371731 1.73531
thorax -7.73587 -0.133317 4.47977
lowerneck -22.0164 -0.686455 -6.80575
upperneck 22.0129 -0.00982367 4.18656
head 10.7267 -0.163501 2.62455
rclavicle -1.04362e-014 7.15625e-015
rhumerus -11.214 6.54653 -42.7206
rradius 123.224
rwrist -25.149
rhand -28.5942 -17.2723
rfingers 7.12502
rthumb -1.95978 -47.243
lclavicle -1.04362e-014 7.15625e-015
lhumerus -38.9921 -12.2654 37.1382
lradius 100.411
lwrist 15.0784
lhand -37.4938 14.9672
lfingers 7.12502
lthumb -10.551 44.6823
rfemur -28.4806 -22.3282 17.9065
rtibia 26.6993
rfoot -28.089 11.1645
rtoes -9.27078
lfemur -20.2978 1.95611 -10.5198
ltibia 10.488
lfoot 10.5206 9.09682
ltoes -10.1092
385
root 5.13101 19.477 -54.2021 -177.107 -5.11552 178.343
lowerback 18.2858 0.469828 -4.3704
upperback 2.00094 -0.445445 1.709
thorax -8.05505 -0.184721 4.4757
lowerneck -21.8216 -0.396035 -6.05465
upperneck 21.7259 0.29176 3.61634
head 10.569 -0.0261349 2.33192
rclavicle -1.23246e-014 1.70955e-014
rhumerus -11.214 6.54653 -42.7206
rradius 123.224
rwrist -25.149
rhand -28.5942 -17.2723
rfingers 7.12502
rthumb -1.95978 -47.243
lclavicle -1.23246e-014 1.70955e-014
lhumerus -38.9921 -12.2654 37.1382
lradius 100.411
lwrist 15.0784
lhand -37.4938 14.9672
lfingers 7.12502
lthumb -10.551 44.6823
rfemur -29.3957 -21.63 17.7859
rtibia 28.6055
rfoot -28.8918 10.4021
rtoes -8.6307
lfemur -23.3963 3.97342 -10.9549
ltibia 15.2935
lfoot 10.7839 5.94813
ltoes -11.1111
386
root 5.13961 19.124 -54.4266 -177.596 -5.03137 178.578
lowerback 17.9896 1.34962 -1.08555
upperback 3.21109 1.16302 0.736386
thorax -6.66202 0.397024 1.15587
lowerneck -21.8739 -2.25768 -8.45293
upperneck 20.3964 -1.93527 5.76341
head 10.27 -0.924684 3.15412
rclavicle 2.82274e-014 -1.43125e-014
rhumerus -11.214 6.54653 -42.7206
rradius 123.224
rwrist -25.149
rhand -28.5942 -17.2723
rfingers 7.12502
rthumb -1.95978 -47.243
lclavicle 2.82274e-014 -1.43125e-014
lhumerus -38.9921 -12.2654 37.1382
lradius 100.411
lwrist 15.0784
lhand -37.4938 14.9672
lfingers 7.12502
lthumb -10.551 44.6823
rfemur -30.5059 -21.0242 17.8625
rtibia 31.3391
rfoot -29.4262 9.13819
rtoes -8.67399
lfemur -26.4397 6.03098 -11.2827
ltibia 20.0352
lfoot 11.3828 2.40797
ltoes -11.9676
387
root 5.15317 18.7341 -54.659 -178.222 -4.92421 178.882
lowerback 19.0404 1.40782 -0.90151
upperback 3.47877 1.2003 0.797968
thorax -6.93792 0.381321 1.10239
lowerneck -21.6152 -2.05407 -7.88262
upperneck 20.1281 -1.73363 5.30003
head 10.1001 -0.840252 2.917
rclavicle 1.93815e-014 1.03368e-014
rhumerus -11.214 6.54653 -42.7206
rradius 123.224
rwrist -25.149
rhand -28.5942 -17.2723
rfingers 7.12502
rthumb -1.95978 -47.243
lclavicle 1.93815e-014 1.03368e-014
lhumerus -38.9921 -12.2654 37.1382
lradius 100.411
lwrist 15.0784
lhand -37.4938 14.9672
lfingers 7.12502
lthumb -10.551 44.6823
rfemur -31.6989 -20.6119 18.1409
rtibia 35.0765
rfoot -26.7706 6.41305
rtoes -13.5027
lfemur -29.3994 7.98943 -11.5201
ltibia 25.2099
lfoot 11.8254 -1.32735
ltoes -12.4296
388
root 5.16358 18.3016 -54.8934 -178.869 -4.8115 179.077
lowerback 20.1077 1.51346 -0.783928
upperback 3.74148 1.28461 0.851012
thorax -7.22542 0.387595 1.06533
lowerneck -21.2469 -1.94346 -7.62477
upperneck 19.7983 -1.62523 5.07924
head 9.903 -0.794649 2.80481
rclavicle -8.74653e-015 1.15295e-014
rhumerus -11.214 6.54653 -42.7206
rradius 123.224
rwrist -25.149
rhand -28.5942 -17.2723
rfingers 7.12502
rthumb -1.95978 -47.243
lclavicle -8.74653e-015 1.15295e-014
lhumerus -38.9921 -12.2654 37.1382
lradius 100.411
lwrist 15.0784
lhand -37.4938 14.9672
lfingers 7.12502
lthumb -10.551 44.6823
rfemur -32.6644 -20.0671 18.3239
rtibia 38.8474
rfoot -21.7293 4.62913
rtoes -11.0742
lfemur -31.8632 9.96036 -12.0266
ltibia 29.7055
lfoot 11.7985 -5.3443
ltoes -4.52547
389
root 5.16104 17.834 -55.1182 -179.547 -4.46539 179.094
lowerback 21.2538 1.64044 -0.740271
upperback 3.96002 1.36643 0.72355
thorax -7.59456 0.392312 0.873253
lowerneck -20.4962 -1.77306 -7.10963
upperneck 19.169 -1.55555 4.94916
head 9.53371 -0.737152 2.67194
rclavicle -8.24956e-015 7.95139e-015
rhumerus -11.214 6.54653 -42.7206
rradius 123.224
rwrist -25.149
rhand -28.5942 -17.2723
rfingers 7.12502
rthumb -1.95978 -47.243
lclavicle -8.24956e-015 7.95139e-015
lhumerus -38.9921 -12.2654 37.1382
lradius 100.411
lwrist 15.0784
lhand -37.4938 14.9672
lfingers 7.12502
lthumb -10.551 44.6823
rfemur -34.6301 -19.3091 18.2621
rtibia 44.5448
rfoot -16.9746 1.42264
rtoes -11.5389
lfemur -34.2257 11.2186 -12.2539
ltibia 35.559
lfoot 3.4014 -5.08583
ltoes -11.099
390
root 5.16104 17.834 -55.1182 -179.547 -4.46539 179.094
lowerback 21.2538 1.64044 -0.740271
upperback 3.96002 1.36643 0.72355
thorax -7.59456 0.392312 0.873253
lowerneck -20.4962 -1.77306 -7.10963
upperneck 19.169 -1.55555 4.94916
head 9.53371 -0.737152 2.67194
rclavicle -8.24956e-015 7.95139e-015
rhumerus -11.214 6.54653 -42.7206
rradius 123.224
rwrist -25.149
rhand -28.5942 -17.2723
rfingers 7.12502
rthumb -1.95978 -47.243
lclavicle -8.24956e-015 7.95139e-015
lhumerus -38.9921 -12.2654 37.1382
lradius 100.411
lwrist 15.0784
lhand -37.4938 14.9672
lfingers 7.12502
lthumb -10.551 44.6823
rfemur -34.6301 -19.3091 18.2621
rtibia 44.5448
rfoot -16.9746 1.42264
rtoes -11.5389
lfemur -34.2257 11.2186 -12.2539
ltibia 35.559
lfoot 3.4014 -5.08583
ltoes -11.099
391
root 5.16104 17.834 -55.1182 -179.547 -4.46539 179.094
lowerback 21.2538 1.64044 -0.740271
upperback 3.96002 1.36643 0.72355
thorax -7.59456 0.392312 0.873253
lowerneck -20.4962 -1.77306 -7.10963
upperneck 19.169 -1.55555 4.94916
head 9.53371 -0.737152 2.67194
rclavicle -8.24956e-015 7.95139e-015
rhumerus -11.214 6.54653 -42.7206
rradius 123.224
rwrist -25.149
rhand -28.5942 -17.2723
rfingers 7.12502
rthumb -1.95978 -47.243
lclavicle -8.24956e-015 7.95139e-015
lhumerus -38.9921 -12.2654 37.1382
lradius 100.411
lwrist 15.0784
lhand -37.4938 14.9672
lfingers 7.12502
lthumb -10.551 44.6823
rfemur -34.6301 -19.3091 18.2621
rtibia 44.5448
rfoot -16.9746 1.42264
rtoes -11.5389
lfemur -34.2257 11.2186 -12.2539
ltibia 35.559
lfoot 3.4014 -5.08583
ltoes -11.099
392
root 5.16104 17.834 -55.1182 -179.547 -4.46539 179.094
lowerback 21.2538 1.64044 -0.740271
upperback 3.96002 1.36643 0.72355
thorax -7.59456 0.392312 0.873253
lowerneck -20.4962 -1.77306 -7.10963
upperneck 19.169 -1.55555 4.94916
head 9.53371 -0.737152 2.67194
rclavicle -8.24956e-015 7.95139e-015
rhumerus -11.214 6.54653 -42.7206
rradius 123.224
rwrist -25.149
rhand -28.5942 -17.2723
rfingers 7.12502
rthumb -1.95978 -47.243
lclavicle -8.24956e-015 7.95139e-015
lhumerus -38.9921 -12.2654 37.1382
lradius 100.411
lwrist 15.0784
lhand -37.4938 14.9672
lfingers 7.12502
lthumb -10.551 44.6823
rfemur -34.6301 -19.3091 18.2621
rtibia 44.5448
rfoot -16.9746 1.42264
rtoes -11.5389
lfemur -34.2257 11.2186 -12.2539
ltibia 35.559
lfoot 3.4014 -5.08583
ltoes -11.099
393
root 5.16104 17.834 -55.1182 -179.547 -4.46539 179.094
lowerback 21.2538 1.64044 -0.740271
upperback 3.96002 1.36643 0.72355
thorax -7.59456 0.392312 0.873253
lowerneck -20.4962 -1.77306 -7.10963
upperneck 19.169 -1.55555 4.94916
head 9.53371 -0.737152 2.67194
rclavicle -8.24956e-015 7.95139e-015
rhumerus -11.214 6.54653 -42.7206
rradius 123.224
rwrist -25.149
rhand -28.5942 -17.2723
rfingers 7.12502
rthumb -1.95978 -47.243
lclavicle -8.24956e-015 7.95139e-015
lhumerus -38.9921 -12.2654 37.1382
lradius 100.411
lwrist 15.0784
lhand -37.4938 14.9672
lfingers 7.12502
lthumb -10.551 44.6823
rfemur -34.6301 -19.3091 18.2621
rtibia 44.5448
rfoot -16.9746 1.42264
rtoes -11.5389
lfemur -34.2257 11.2186 -12.2539
ltibia 35.559
lfoot 3.4014 -5.08583
ltoes -11.099
